<?xml version="1.0" encoding="utf-8"?>
<!-- Generator: Adobe Illustrator 15.0.0, SVG Export Plug-In . SVG Version: 6.00 Build 0)  -->
<!DOCTYPE svg PUBLIC "-//W3C//DTD SVG 1.1//EN" "http://www.w3.org/Graphics/SVG/1.1/DTD/svg11.dtd">
<svg xmlns="http://www.w3.org/2000/svg" version="1.1" width="150" height="53"><svg xmlns:xlink="http://www.w3.org/1999/xlink" version="1.1" id="Ebene_1" x="0" y="0" width="150" height="53" viewBox="225.56 206.14 427.128 152" enable-background="new 225.56 206.14 427.128 152" xml:space="preserve">
<path fill="#444444" d="M628.744,262.351c-12.733,0-23.212,10.122-23.212,22.92v21.779h4.404v-16.309h37.66v16.309h4.399v-21.779  c0-0.125,0.013-0.238,0.013-0.356C652.01,272.293,641.181,262.351,628.744,262.351z M609.937,286.745v-1.473  c0-10.363,8.391-18.692,18.868-18.692c10.059,0,18.8,8.156,18.8,18.336c0,0.119-0.008,0.231-0.008,0.356v1.473H609.937z"/>
<path fill="#444444" d="M405.994,262.378c-12.734,0-23.212,10.122-23.212,22.92v21.78h4.404V290.77h37.66v16.31h4.399V285.3  c0-0.125,0.013-0.238,0.013-0.356C429.26,272.321,418.431,262.378,405.994,262.378z M387.187,286.772v-1.473  c0-10.363,8.391-18.692,18.868-18.692c10.059,0,18.8,8.156,18.8,18.336c0,0.119-0.008,0.231-0.008,0.356v1.473H387.187z"/>
<g>
	<path fill="#444444" d="M267.138,307.078V267.6l-16.68,39.478h-3.84L230,267.6v39.478h-4.439V262.74h6.899l16.14,37.738   l16.08-37.738h6.899v44.337H267.138z"/>
</g>
<g>
	<path fill="#444444" d="M301.599,307.779c-13.021,0-23.459-10.319-23.459-23.218c0-12.3,10.739-22.679,23.459-22.679   c12.839,0,23.398,10.319,23.398,22.979C324.998,297.4,314.438,307.779,301.599,307.779z M301.599,265.962   c-10.261,0-18.959,8.58-18.959,18.719c0,10.5,8.52,19.02,18.959,19.02c10.318,0,18.898-8.52,18.898-18.779   C320.498,274.542,311.918,265.962,301.599,265.962z"/>
</g>
<g>
	<path fill="#444444" d="M521.6,307.779c-13.021,0-23.46-10.319-23.46-23.218c0-12.3,10.739-22.679,23.46-22.679   c12.839,0,23.397,10.319,23.397,22.979C544.998,297.4,534.438,307.779,521.6,307.779z M521.6,265.962   c-10.26,0-18.96,8.58-18.96,18.719c0,10.5,8.52,19.02,18.96,19.02c10.317,0,18.897-8.52,18.897-18.779   C540.498,274.542,531.919,265.962,521.6,265.962z"/>
</g>
<g>
	<path fill="#444444" d="M458.936,306.898V262.56h4.438v40.318h35.5v4.021h-39.938V306.898z"/>
</g>
<g>
	<path fill="#444444" d="M575.885,307.859c-13.561,0-24.119-10.081-24.119-23.04c0-12.839,10.318-22.859,23.52-22.859   c9.659,0,18.06,5.04,20.999,12.6h-4.979c-3.062-5.4-8.82-8.52-15.66-8.52c-10.919,0-19.379,8.219-19.379,18.899   c0,10.56,8.58,18.84,19.438,18.84c8.761,0,16.319-6.12,17.939-13.14h-24.779v-4.02h30.119   C598.323,297.779,588.903,307.859,575.885,307.859z"/>
</g>
<path fill="#444444" d="M370.78,307l-36.782-39.101v38.999h-4.438V262.56h6l35.222,36.773l0.045-36.75h4.345V307H370.78z"/>
<rect x="225.563" y="211.01" fill="#00885B" width="136.188" height="8.218"/>
<rect x="370.998" y="211" fill="#EFD500" width="136.188" height="8.218"/>
<rect x="516.5" y="211.01" fill="#0665AD" width="136.188" height="8.218"/>
<rect x="225.563" y="346.658" fill="#00885B" width="136.188" height="8.217"/>
<rect x="370.998" y="346.648" fill="#EFD500" width="136.188" height="8.217"/>
<rect x="516.5" y="346.658" fill="#0665AD" width="136.188" height="8.217"/>
</svg></svg>
